<svg xmlns="http://www.w3.org/2000/svg" width="900" height="360" viewBox="0 0 900 360"><rect width="900" height="360" fill="#f5f1e8"/><style>text{font-family:Arial,sans-serif;fill:#2f2b26}.t{font-size:18px;font-weight:700}.s{font-size:13px;fill:#6e655b}.p{fill:#fffdf8;stroke:#423c35;stroke-width:2}.c{fill:#eee7dc;stroke:#9a8e80}.f{fill:#f5ded6;stroke:#423c35;stroke-width:2}.m{stroke:#7f7165;stroke-width:3}</style><text x="30" y="32" class="t">320px focused state</text><text x="30" y="56" class="s">same 79vw focus / same 3.15rem siblings; only compressed marks differ</text><text x="35" y="92" class="t">08 parent</text><rect x="35" y="108" width="380" height="215" rx="8" class="p"/><rect x="52" y="128" width="52" height="174" class="c"/><rect x="104" y="128" width="52" height="174" class="c"/><rect x="156" y="128" width="202" height="174" class="f"/><rect x="358" y="128" width="40" height="174" class="c"/><text x="61" y="151" class="s">01</text><text x="113" y="151" class="s">02</text><text x="220" y="151" class="s">focused category</text><text x="365" y="151" class="s">04</text><text x="61" y="287" class="s">blank</text><text x="113" y="287" class="s">blank</text><text x="365" y="287" class="s">blank</text><text x="485" y="92" class="t">08A child</text><rect x="485" y="108" width="380" height="215" rx="8" class="p"/><rect x="502" y="128" width="52" height="174" class="c"/><rect x="554" y="128" width="52" height="174" class="c"/><rect x="606" y="128" width="202" height="174" class="f"/><rect x="808" y="128" width="40" height="174" class="c"/><text x="511" y="151" class="s">01</text><text x="563" y="151" class="s">02</text><text x="670" y="151" class="s">focused category</text><text x="815" y="151" class="s">04</text><g class="m"><line x1="510" y1="184" x2="544" y2="184"/><line x1="510" y1="202" x2="535" y2="202"/><line x1="510" y1="220" x2="541" y2="220"/><line x1="510" y1="238" x2="530" y2="238"/><line x1="562" y1="184" x2="598" y2="184"/><line x1="562" y1="202" x2="590" y2="202"/><line x1="562" y1="220" x2="596" y2="220"/><line x1="814" y1="184" x2="842" y2="184"/><line x1="814" y1="202" x2="836" y2="202"/></g><text x="505" y="287" class="s">product-derived marks remain</text></svg>