<svg xmlns="http://www.w3.org/2000/svg" width="788" height="740" viewBox="0 0 788 740">
    <rect width="100%" height="100%" fill="#eeeae2"/>
    <text x="20" y="20" font-size="12" font-family="monospace" fill="#5f574f">Geometry capture · viewport 390px · path 01→02 at 50% · spread .58</text>
    <rect x="20" y="52" width="360" height="650" rx="8" fill="#f2ede4" stroke="#50483f"/><text x="36" y="32" font-size="16" font-family="sans-serif" font-weight="700">Parent 26 · 50% intermediate</text><rect x="32" y="70" width="336" height="54" fill="#f7f2ea" stroke="#bcb2a6"/><text x="44" y="93" font-size="10" font-family="sans-serif" fill="#6a6259">視差菜單體</text><text x="44" y="114" font-size="18" font-family="serif" font-weight="700">潮巷小館</text><g opacity="0.669"><rect x="246.0" y="332.6" width="100.7" height="34" fill="#fbf8f1" stroke="#95543d"/><text x="296.3" y="352.6" text-anchor="middle" font-size="10.5" font-family="serif">個人主餐</text></g><g opacity="0.669"><rect x="228.2" y="449.0" width="100.7" height="34" fill="#fbf8f1" stroke="#537357"/><text x="278.5" y="469.0" text-anchor="middle" font-size="10.5" font-family="serif">飯麵類</text></g><g opacity="0.460"><rect x="136.2" y="494.6" width="89.8" height="34" fill="#fbf8f1" stroke="#486a7c"/><text x="181.0" y="514.6" text-anchor="middle" font-size="9.5" font-family="serif">分享料理</text></g><g opacity="0.131"><rect x="51.3" y="418.1" width="72.6" height="34" fill="#fbf8f1" stroke="#8a6b38"/><text x="87.6" y="438.1" text-anchor="middle" font-size="8.1" font-family="serif">小食</text></g><g opacity="0.120"><rect x="72.1" y="288.2" width="72.0" height="34" fill="#fbf8f1" stroke="#785b79"/><text x="108.1" y="308.2" text-anchor="middle" font-size="8.0" font-family="serif">飲料</text></g><g opacity="0.192"><rect x="182.6" y="244.8" width="75.8" height="34" fill="#fbf8f1" stroke="#9a5b68"/><text x="220.4" y="264.8" text-anchor="middle" font-size="8.3" font-family="serif">甜點</text></g><rect x="32" y="618" width="336" height="56" fill="#eee7dc" stroke="#a69c90"/><text x="44" y="642" font-size="10" font-family="sans-serif" fill="#6a6259">觀看面未對齊</text><text x="44" y="661" font-size="14" font-family="serif" font-weight="700">個人主餐 · 8 道</text><text x="356" y="652" text-anchor="end" font-size="10" font-family="sans-serif">立體</text>
    <rect x="408" y="52" width="360" height="650" rx="8" fill="#f2ede4" stroke="#50483f"/><text x="424" y="32" font-size="16" font-family="sans-serif" font-weight="700">26A child · 50% intermediate</text><rect x="420" y="70" width="336" height="54" fill="#f7f2ea" stroke="#bcb2a6"/><text x="432" y="93" font-size="10" font-family="sans-serif" fill="#6a6259">視差菜單體</text><text x="432" y="114" font-size="18" font-family="serif" font-weight="700">潮巷小館</text><rect x="420.0" y="142" width="162.0" height="74" fill="#f8f4ec" stroke="#95543d"/><rect x="420.0" y="142" width="162.0" height="3" fill="#95543d"/><text x="428.0" y="160" font-size="9" font-family="monospace" fill="#95543d">從這裡離開</text><text x="428.0" y="180" font-size="14" font-family="serif" font-weight="700">個人主餐</text><text x="574.0" y="180" text-anchor="end" font-size="9" font-family="sans-serif">8 道</text><rect x="428.0" y="191" width="146.0" height="3" fill="#ded6cc"/><rect x="428.0" y="191" width="91.2" height="3" fill="#95543d"/><text x="428.0" y="209" font-size="9" font-family="sans-serif" fill="#625b53">範圍可辨</text><rect x="594.0" y="142" width="162.0" height="74" fill="#f8f4ec" stroke="#537357"/><rect x="594.0" y="142" width="162.0" height="3" fill="#537357"/><text x="602.0" y="160" font-size="9" font-family="monospace" fill="#537357">往左上</text><text x="602.0" y="180" font-size="14" font-family="serif" font-weight="700">飯麵類</text><text x="748.0" y="180" text-anchor="end" font-size="9" font-family="sans-serif">6 道</text><rect x="602.0" y="191" width="146.0" height="3" fill="#ded6cc"/><rect x="602.0" y="191" width="91.2" height="3" fill="#537357"/><text x="602.0" y="209" font-size="9" font-family="sans-serif" fill="#625b53">範圍可辨</text><g opacity="0.669"><rect x="634.0" y="332.6" width="100.7" height="34" fill="#fbf8f1" stroke="#95543d"/><text x="684.3" y="352.6" text-anchor="middle" font-size="10.5" font-family="serif">個人主餐</text></g><g opacity="0.669"><rect x="616.2" y="449.0" width="100.7" height="34" fill="#fbf8f1" stroke="#537357"/><text x="666.5" y="469.0" text-anchor="middle" font-size="10.5" font-family="serif">飯麵類</text></g><g opacity="0.460"><rect x="524.2" y="494.6" width="89.8" height="34" fill="#fbf8f1" stroke="#486a7c"/><text x="569.0" y="514.6" text-anchor="middle" font-size="9.5" font-family="serif">分享料理</text></g><g opacity="0.131"><rect x="439.3" y="418.1" width="72.6" height="34" fill="#fbf8f1" stroke="#8a6b38"/><text x="475.6" y="438.1" text-anchor="middle" font-size="8.1" font-family="serif">小食</text></g><g opacity="0.120"><rect x="460.1" y="288.2" width="72.0" height="34" fill="#fbf8f1" stroke="#785b79"/><text x="496.1" y="308.2" text-anchor="middle" font-size="8.0" font-family="serif">飲料</text></g><g opacity="0.192"><rect x="570.6" y="244.8" width="75.8" height="34" fill="#fbf8f1" stroke="#9a5b68"/><text x="608.4" y="264.8" text-anchor="middle" font-size="8.3" font-family="serif">甜點</text></g><rect x="420" y="618" width="336" height="56" fill="#eee7dc" stroke="#a69c90"/><text x="432" y="642" font-size="10" font-family="sans-serif" fill="#6a6259">觀看面未對齊</text><text x="432" y="661" font-size="14" font-family="serif" font-weight="700">個人主餐 · 8 道</text><text x="744" y="652" text-anchor="end" font-size="10" font-family="sans-serif">立體</text>
    <text x="20" y="726" font-size="11" font-family="sans-serif" fill="#5f574f">Volume/category/product geometry is unchanged. Child adds two non-interactive transition landmarks only.</text>
    </svg>