<svg xmlns="http://www.w3.org/2000/svg" width="1200" height="900" viewBox="0 0 1200 900"><rect width="1200" height="900" fill="#eeeae2"/><style>text{font-family:Arial,'Microsoft JhengHei',sans-serif;fill:#211f1b}.h{font-size:24px;font-weight:700}.s{font-size:14px;fill:#68635c}.p{font-size:16px;font-weight:700}.price{font-size:14px;font-weight:700}.cue{font-size:13px;fill:#5a5147}.box{fill:#fffdf8;stroke:#8f877c}.line{stroke:#c9c2b7}.strong{stroke:#211f1b;stroke-width:2}</style><text x="50" y="45" class="h">05C Narrow Column Collapse — parent / child browser view record</text><text x="50" y="75" class="s">Only ≤340px changes: identity uses the full first row; cue and price share the lower meta row. 390px and desktop remain parent geometry.</text><g transform="translate(50 120)"><text x="0" y="-18" class="h">Parent 05 · 320px</text><rect class="box" width="500" height="330"/><line class="strong" x1="22" y1="50" x2="478" y2="50"/><text x="22" y="85" class="p">塔香三杯杏鮑菇定食</text><text x="478" y="85" class="price" text-anchor="end">NT$290</text><text x="22" y="112" class="s">杏鮑菇、老薑與九層塔快炒，醬香濃但不厚重。</text><text x="22" y="140" class="cue">蔬食、三杯</text><line class="line" x1="22" y1="160" x2="478" y2="160"/><text x="22" y="195" class="p">川味麻婆豆腐鍋</text><text x="478" y="195" class="price" text-anchor="end">NT$280</text><text x="22" y="222" class="s">花椒、豆瓣與嫩豆腐煨煮，附一份主食。</text><text x="22" y="247" class="s" fill="#6d3934">目前售完</text><text x="22" y="277" class="cue">麻辣、慢煨</text></g><g transform="translate(650 120)"><text x="0" y="-18" class="h">Child 05C · 320px</text><rect class="box" width="500" height="330"/><line class="strong" x1="22" y1="50" x2="478" y2="50"/><text x="22" y="85" class="p">塔香三杯杏鮑菇定食</text><text x="22" y="112" class="s">杏鮑菇、老薑與九層塔快炒，醬香濃但不厚重。</text><text x="22" y="142" class="cue">蔬食、三杯</text><text x="478" y="142" class="price" text-anchor="end">NT$290</text><line class="line" x1="22" y1="160" x2="478" y2="160"/><text x="22" y="195" class="p">川味麻婆豆腐鍋</text><text x="22" y="222" class="s">花椒、豆瓣與嫩豆腐煨煮，附一份主食。</text><text x="22" y="247" class="s" fill="#6d3934">目前售完</text><text x="22" y="282" class="cue">麻辣、慢煨</text><text x="478" y="282" class="price" text-anchor="end">NT$280</text></g><g transform="translate(50 520)"><text x="0" y="-18" class="h">390px and desktop</text><rect class="box" width="1100" height="260"/><text x="30" y="50" class="p">Parent and child geometry match exactly</text><text x="30" y="82" class="s">390px: price remains the fixed trailing track spanning identity and cue rows.</text><text x="30" y="112" class="s">Desktop: identity, cue and price remain three shared columns.</text><text x="30" y="152" class="s">Browser checks: 6 categories · 30 unique Products · no horizontal overflow · description visible · DOM order identity → cue → price.</text><text x="30" y="192" class="s">Interaction: pointer and Space toggle · one detail open · reset closes all · reduced-motion transition 0s.</text></g></svg>